<svg width="46" height="46" viewBox="0 0 46 46" fill="none" xmlns="http://www.w3.org/2000/svg">
<path fill-rule="evenodd" clip-rule="evenodd" d="M46 0H0V14C0 31.6731 14.3269 46 32 46H46V0ZM18.4393 29.117C17.8535 28.5312 17.8535 27.5815 18.4393 26.9957L25.1569 20.2782L18.4393 13.5606C17.8535 12.9749 17.8535 12.0251 18.4393 11.4393C19.0251 10.8536 19.9749 10.8536 20.5607 11.4393L27.2782 18.1568L33.9957 11.4393C34.5815 10.8536 35.5312 10.8536 36.117 11.4393C36.7028 12.0251 36.7028 12.9749 36.117 13.5606L29.3995 20.2782L36.117 26.9957C36.7028 27.5815 36.7028 28.5312 36.117 29.117C35.5312 29.7028 34.5815 29.7028 33.9957 29.117L27.2782 22.3995L20.5606 29.117C19.9749 29.7028 19.0251 29.7028 18.4393 29.117Z" fill="#FFFF"/>
</svg>
