<svg width="203" height="196" viewBox="0 0 203 196" fill="#429854" xmlns="http://www.w3.org/2000/svg">
<path d="M38.4239 73L31.2739 95M18.9239 133L24.1239 117M24.1239 117L18.9239 94M24.1239 117L44.4239 104M24.1239 117L31.2739 95M31.2739 95V94M31.2739 77.5V94M31.2739 94L44.4239 83M11.4239 148.5C-1.4094 130 -12.7761 85 44.4239 53C55.4239 84.8333 64.2239 148.5 11.4239 148.5Z" stroke="black"/>
<path d="M38.4239 73L31.2739 95M18.9239 133L24.1239 117M24.1239 117L18.9239 94M24.1239 117L44.4239 104M24.1239 117L31.2739 95M31.2739 95V94M31.2739 77.5V94M31.2739 94L44.4239 83M11.4239 148.5C-1.4094 130 -12.7761 85 44.4239 53C55.4239 84.8333 64.2239 148.5 11.4239 148.5Z" stroke="black" stroke-opacity="0.2"/>
<path d="M84.3444 21L91.4944 43M103.844 81L98.6444 65M98.6444 65L103.844 42M98.6444 65L78.3444 52M98.6444 65L91.4944 43M91.4944 43V42M91.4944 25.5V42M91.4944 42L78.3444 31M111.344 96.5C124.178 78 135.544 33 78.3444 1C67.3444 32.8333 58.5444 96.5 111.344 96.5Z" stroke="black"/>
<path d="M84.3444 21L91.4944 43M103.844 81L98.6444 65M98.6444 65L103.844 42M98.6444 65L78.3444 52M98.6444 65L91.4944 43M91.4944 43V42M91.4944 25.5V42M91.4944 42L78.3444 31M111.344 96.5C124.178 78 135.544 33 78.3444 1C67.3444 32.8333 58.5444 96.5 111.344 96.5Z" stroke="black" stroke-opacity="0.2"/>
<path d="M111.9 129.32L98.0503 147.848M74.1274 179.851L84.2002 166.376M84.2002 166.376L105.989 157.361M84.2002 166.376L83.1142 142.295M84.2002 166.376L98.0503 147.848M98.0503 147.848L98.8672 147.271M112.347 137.756L98.8672 147.271M98.8672 147.271L100.271 130.184M65.7894 194.917C88.3041 194.733 131.623 178.069 124.78 112.884C92.4294 122.255 35.3408 151.781 65.7894 194.917Z" stroke="black"/>
<path d="M111.9 129.32L98.0503 147.848M74.1274 179.851L84.2002 166.376M84.2002 166.376L105.989 157.361M84.2002 166.376L83.1142 142.295M84.2002 166.376L98.0503 147.848M98.0503 147.848L98.8672 147.271M112.347 137.756L98.8672 147.271M98.8672 147.271L100.271 130.184M65.7894 194.917C88.3041 194.733 131.623 178.069 124.78 112.884C92.4294 122.255 35.3408 151.781 65.7894 194.917Z" stroke="black" stroke-opacity="0.2"/>
<path d="M156.837 79.6563L167.981 99.9275M187.231 134.941L179.126 120.199M179.126 120.199L179.926 96.6318M179.126 120.199L156.75 111.231M179.126 120.199L167.981 99.9275M167.981 99.9275L167.794 98.9452M164.703 82.7373L167.794 98.9452M167.794 98.9452L152.816 90.6032M197.502 148.762C206.642 128.186 209.378 81.853 147.197 61.1342C142.354 94.4646 145.636 158.653 197.502 148.762Z" stroke="black"/>
<path d="M156.837 79.6563L167.981 99.9275M187.231 134.941L179.126 120.199M179.126 120.199L179.926 96.6318M179.126 120.199L156.75 111.231M179.126 120.199L167.981 99.9275M167.981 99.9275L167.794 98.9452M164.703 82.7373L167.794 98.9452M167.794 98.9452L152.816 90.6032M197.502 148.762C206.642 128.186 209.378 81.853 147.197 61.1342C142.354 94.4646 145.636 158.653 197.502 148.762Z" stroke="black" stroke-opacity="0.2"/>
</svg>
