<svg width="365" height="366" viewBox="0 0 365 366" fill="none" xmlns="http://www.w3.org/2000/svg">
<path fill-rule="evenodd" clip-rule="evenodd" d="M364.252 201H257.011C248.905 234.843 218.454 260 182.126 260C145.798 260 115.346 234.843 107.241 201H0C9.04241 293.62 87.1315 366 182.126 366C277.12 366 355.21 293.62 364.252 201ZM364.152 164H256.764C248.303 130.663 218.095 106 182.126 106C146.157 106 115.948 130.663 107.488 164H0.100392C9.60515 71.86 87.4737 0 182.126 0C276.778 0 354.647 71.86 364.152 164Z" fill="white"/>
<circle cx="181.626" cy="182.5" r="41.5" fill="white"/>
</svg>